<svg width="23" height="20" viewBox="0 0 23 20" fill="none" xmlns="http://www.w3.org/2000/svg">
<g id="Group">
<path id="Vector" d="M15.6785 0H6.50336C3.51666 0 1.09094 2.42572 1.09094 5.41242V14.5876C1.09094 17.5743 3.51666 20 6.50336 20H15.6785C18.6652 20 21.0909 17.5743 21.0909 14.5876V5.41242C21.0599 2.42572 18.632 0 15.6785 0ZM19.3171 14.5565C19.3171 16.5787 17.7007 18.1951 15.6785 18.1951H6.50336C5.01112 18.1951 3.73618 17.2927 3.1752 15.9867L3.48562 15.7073L4.13972 13.8093L2.86478 11.6319V5.37916C2.86478 3.35699 4.48119 1.74058 6.50336 1.74058H15.6785C17.7007 1.74058 19.3171 3.38803 19.3171 5.37916V14.5565Z" fill="#E6E7E8"/>
<path id="XMLID_88_" d="M17.2328 14.2152C17.4191 14.2773 17.6364 14.3083 17.8869 14.3083C18.8514 14.3083 19.3171 13.9358 19.3171 13.468C19.3171 12.9403 18.5698 12.9403 18.5078 12.4414C18.4146 11.8494 18.4767 9.20635 19.5033 7.7762L20.1885 8.08662C20.1885 8.08662 20.3747 8.21078 20.6231 8.17974C20.7783 8.17974 20.9335 8.11766 21.0887 7.93141C21.4612 7.52786 22.5188 6.18861 22.8625 5.47464C22.9557 5.28839 21.5255 3.51455 20.7162 2.86267C20.1574 2.42808 19.4723 2.14648 18.694 2.14648C17.2949 2.14648 16.082 3.04892 15.6452 4.29282C14.7428 4.94693 12.9712 5.97132 11.0732 6.47021C8.86475 7.06223 6.59424 6.50125 5.03991 6.59438C3.04878 6.6875 1.86696 8.1487 1.898 9.82941C1.96009 11.5412 3.11086 13.0955 3.11086 14.7119C3.11086 15.9868 2.08426 16.5478 1.36807 16.5478C0.527716 16.5478 0.465632 16.2064 0.217295 16.2064C0.124169 16.2064 0 16.2995 0 16.4236C0 16.8582 1.05765 17.264 1.64745 17.264C3.23282 17.264 3.88692 16.1443 3.88692 16.1443C3.88692 16.1443 4.29047 17.3261 5.84701 17.3261C7.09091 17.3261 7.62084 16.7341 7.62084 16.2374C7.62084 15.8338 7.37251 15.6454 7.18625 15.4281C6.93792 15.0866 6.93792 14.6809 6.93792 14.6809C6.93792 14.6809 7.2173 14.7119 7.62306 14.7119C8.5255 14.7119 8.80488 14.3394 8.80488 13.9957C8.80488 13.5301 8.27716 13.5611 8.27716 12.8139C8.27716 12.2219 8.58758 12.0356 8.86918 12.0356C9.1796 12.0356 10.3304 12.1598 11.7317 12.284C12.1973 12.315 13.3792 12.7806 13.3792 14.5855V15.2396C13.3792 16.3283 13.8137 17.6964 15.7738 17.6964C17.1109 17.6964 17.8581 16.9491 17.8581 16.4214C17.8581 16.08 17.5477 15.9248 17.3925 15.7052C17.0155 15.0844 17.2328 14.2152 17.2328 14.2152Z" fill="#FF671B"/>
<path id="XMLID_87_" d="M20.4368 6.31494C20.3126 6.31494 20.2195 6.40807 20.2195 6.53224C20.2195 6.65641 20.3126 6.74953 20.4368 6.74953C20.5609 6.74953 20.6541 6.65641 20.6541 6.53224C20.6851 6.40807 20.5609 6.31494 20.4368 6.31494Z" fill="white"/>
<path id="XMLID_86_" d="M21.2461 5.62988C21.1219 5.62988 21.0288 5.72301 21.0288 5.84718C21.0288 5.97135 21.1219 6.06447 21.2461 6.06447C21.3703 6.06447 21.4634 5.97135 21.4634 5.84718C21.4634 5.72301 21.3703 5.62988 21.2461 5.62988Z" fill="white"/>
<path id="XMLID_85_" d="M21.6186 4.85156C21.5255 4.85156 21.4324 4.91365 21.4324 5.03781C21.4324 5.13094 21.4945 5.22407 21.6186 5.22407C21.7118 5.22407 21.8049 5.16198 21.8049 5.03781C21.8049 4.94691 21.7118 4.85156 21.6186 4.85156Z" fill="white"/>
<path id="XMLID_84_" d="M15.0243 5.94003C15.1485 5.94003 15.2727 5.81586 15.2727 5.6917C15.2727 5.56753 15.1485 5.44336 15.0243 5.44336C14.9002 5.44336 14.776 5.56753 14.776 5.6917C14.776 5.84691 14.9002 5.94003 15.0243 5.94003Z" fill="white"/>
<path id="XMLID_83_" d="M15.9889 11.9756C15.8648 11.9756 15.7406 12.0998 15.7406 12.2239C15.7406 12.3481 15.8648 12.4723 15.9889 12.4723C16.1131 12.4723 16.2373 12.3481 16.2373 12.2239C16.2373 12.0687 16.1131 11.9756 15.9889 11.9756Z" fill="white"/>
<path id="XMLID_82_" d="M17.4501 12.2241C17.3259 12.2241 17.2018 12.3483 17.2018 12.4725C17.2018 12.5966 17.3259 12.7208 17.4501 12.7208C17.5743 12.7208 17.6985 12.5966 17.6985 12.4725C17.7007 12.3173 17.6075 12.2241 17.4501 12.2241Z" fill="white"/>
<path id="XMLID_81_" d="M16.1752 9.70508C16.051 9.70508 15.9269 9.82925 15.9269 9.95341C15.9269 10.0776 16.051 10.2018 16.1752 10.2018C16.2994 10.2018 16.4236 10.0776 16.4236 9.95341C16.4236 9.82925 16.3304 9.70508 16.1752 9.70508Z" fill="white"/>
<path id="XMLID_80_" d="M17.0466 8.02451C17.1707 8.02451 17.2949 7.90034 17.2949 7.77617C17.2949 7.652 17.1707 7.52783 17.0466 7.52783C16.9224 7.52783 16.7982 7.652 16.7982 7.77617C16.7982 7.90034 16.8913 8.02451 17.0466 8.02451Z" fill="white"/>
<path id="XMLID_79_" d="M13.1596 7.0289C13.2838 7.0289 13.408 6.90473 13.408 6.78056C13.408 6.65639 13.2838 6.53223 13.1596 6.53223C13.0355 6.53223 12.9113 6.65639 12.9113 6.78056C12.9091 6.90473 13.0332 7.0289 13.1596 7.0289Z" fill="white"/>
<path id="XMLID_78_" d="M14.5588 11.4458C14.4346 11.4458 14.3104 11.57 14.3104 11.6941C14.3104 11.8183 14.4346 11.9425 14.5588 11.9425C14.6829 11.9425 14.8071 11.8183 14.8071 11.6941C14.8071 11.57 14.6829 11.4458 14.5588 11.4458Z" fill="white"/>
<path id="XMLID_77_" d="M13.8736 8.24179C13.9977 8.24179 14.1219 8.11762 14.1219 7.99345C14.1219 7.86928 13.9977 7.74512 13.8736 7.74512C13.7494 7.74512 13.6252 7.86928 13.6252 7.99345C13.6252 8.11762 13.7184 8.24179 13.8736 8.24179Z" fill="white"/>
<path id="XMLID_76_" d="M12.2883 9.64307C12.1641 9.64307 12.0399 9.76723 12.0399 9.8914C12.0399 10.0156 12.1641 10.1397 12.2883 10.1397C12.4124 10.1397 12.5366 10.0156 12.5366 9.8914C12.5366 9.76723 12.4435 9.64307 12.2883 9.64307Z" fill="white"/>
<path id="XMLID_75_" d="M14.8692 9.39267C14.9934 9.39267 15.1175 9.2685 15.1175 9.14433C15.1175 9.02016 14.9934 8.896 14.8692 8.896C14.745 8.896 14.6208 9.02016 14.6208 9.14433C14.6208 9.2685 14.714 9.39267 14.8692 9.39267Z" fill="white"/>
<path id="XMLID_74_" d="M10.9202 7.15283C10.796 7.15283 10.6719 7.277 10.6719 7.40117C10.6719 7.52534 10.796 7.6495 10.9202 7.6495C11.0444 7.6495 11.1685 7.52534 11.1685 7.40117C11.1685 7.27922 11.0754 7.15283 10.9202 7.15283Z" fill="white"/>
<path id="XMLID_73_" d="M11.4789 8.46143C11.3548 8.46143 11.2306 8.58559 11.2306 8.70976C11.2306 8.83393 11.3548 8.9581 11.4789 8.9581C11.6031 8.9581 11.7273 8.83393 11.7273 8.70976C11.7273 8.55455 11.6031 8.46143 11.4789 8.46143Z" fill="white"/>
<path id="XMLID_72_" d="M13.2839 10.6387C13.1597 10.6387 13.0355 10.7628 13.0355 10.887C13.0355 11.0112 13.1597 11.1354 13.2839 11.1354C13.408 11.1354 13.5322 11.0112 13.5322 10.887C13.5322 10.7318 13.4391 10.6387 13.2839 10.6387Z" fill="white"/>
<path id="XMLID_71_" d="M15.8648 7.09091C15.989 7.09091 16.1131 6.96674 16.1131 6.84257C16.1131 6.71841 15.989 6.59424 15.8648 6.59424C15.7406 6.59424 15.6165 6.71841 15.6165 6.84257C15.6165 6.99778 15.7096 7.09091 15.8648 7.09091Z" fill="white"/>
<path id="XMLID_70_" d="M17.7006 10.1709C17.5764 10.1709 17.4523 10.2951 17.4523 10.4192C17.4523 10.5434 17.5764 10.6676 17.7006 10.6676C17.8248 10.6676 17.9489 10.5434 17.9489 10.4192C17.9179 10.2951 17.8248 10.1709 17.7006 10.1709Z" fill="white"/>
<path id="XMLID_69_" d="M18.3215 8.14844C18.1973 8.14844 18.0731 8.27261 18.0731 8.39678C18.0731 8.52095 18.1973 8.64511 18.3215 8.64511C18.4456 8.64511 18.5698 8.52095 18.5698 8.39678C18.5698 8.27261 18.4456 8.14844 18.3215 8.14844Z" fill="white"/>
<path id="XMLID_68_" d="M18.1353 6.09766C18.0111 6.09766 17.887 6.22183 17.887 6.346C17.887 6.47016 18.0111 6.59433 18.1353 6.59433C18.2595 6.59433 18.3836 6.47016 18.3836 6.346C18.3836 6.22183 18.2905 6.09766 18.1353 6.09766Z" fill="white"/>
<path id="XMLID_67_" d="M19.3171 6.50098C19.1929 6.50098 19.0687 6.62514 19.0687 6.74931C19.0687 6.87348 19.1929 6.99765 19.3171 6.99765C19.4412 6.99765 19.5654 6.87348 19.5654 6.74931C19.5654 6.5941 19.4723 6.50098 19.3171 6.50098Z" fill="white"/>
<path id="XMLID_66_" d="M17.2638 5.3501C17.1397 5.3501 17.0155 5.47427 17.0155 5.59843C17.0155 5.7226 17.1397 5.84677 17.2638 5.84677C17.388 5.84677 17.5122 5.7226 17.5122 5.59843C17.5122 5.44322 17.388 5.3501 17.2638 5.3501Z" fill="white"/>
<path id="XMLID_65_" d="M16.7671 4.41699C16.643 4.41699 16.5188 4.54116 16.5188 4.66533C16.5188 4.7895 16.643 4.91367 16.7671 4.91367C16.8913 4.91367 17.0155 4.7895 17.0155 4.66533C17.0155 4.51012 16.9223 4.41699 16.7671 4.41699Z" fill="white"/>
<path id="XMLID_64_" d="M17.7937 4.41699C17.6696 4.41699 17.5454 4.54116 17.5454 4.66533C17.5454 4.7895 17.6696 4.91367 17.7937 4.91367C17.9179 4.91367 18.0421 4.7895 18.0421 4.66533C18.0421 4.51012 17.949 4.41699 17.7937 4.41699Z" fill="white"/>
<path id="XMLID_63_" d="M16.6119 3.73194C16.6119 3.60777 16.7051 3.51465 16.8292 3.51465C16.9534 3.51465 17.0465 3.60777 17.0465 3.73194C17.0465 3.85611 16.9534 3.94924 16.8292 3.94924C16.7051 3.92041 16.6119 3.82729 16.6119 3.73194Z" fill="white"/>
<path id="XMLID_62_" d="M17.2328 2.9555C17.2328 2.86238 17.2949 2.80029 17.388 2.80029C17.4811 2.80029 17.5432 2.86238 17.5432 2.9555C17.5432 3.04863 17.4811 3.11071 17.388 3.11071C17.3259 3.11071 17.2328 3.04863 17.2328 2.9555Z" fill="white"/>
<path id="XMLID_61_" d="M18.0421 2.61196C18.0421 2.54988 18.1042 2.48779 18.1663 2.48779C18.2284 2.48779 18.2905 2.54988 18.2905 2.61196C18.2905 2.67405 18.2284 2.73613 18.1663 2.73613C18.1042 2.73835 18.0421 2.67626 18.0421 2.61196Z" fill="white"/>
<path id="XMLID_60_" d="M21.4634 4.32388C21.4634 4.26179 21.5255 4.19971 21.5875 4.19971C21.6496 4.19971 21.7117 4.26179 21.7117 4.32388C21.7117 4.38596 21.6496 4.44804 21.5875 4.44804C21.5255 4.44804 21.4634 4.38596 21.4634 4.32388Z" fill="white"/>
<path id="XMLID_59_" d="M21.2771 6.81146C21.2771 6.74938 21.3392 6.68729 21.4013 6.65625C21.4634 6.65625 21.5254 6.71833 21.5565 6.78042C21.5565 6.8425 21.4944 6.90459 21.4323 6.93563C21.3392 6.93563 21.2771 6.87354 21.2771 6.81146Z" fill="white"/>
<path id="XMLID_58_" d="M21.6497 6.34613C21.6497 6.28405 21.7117 6.22196 21.7738 6.19092C21.8359 6.19092 21.898 6.253 21.929 6.31509C21.929 6.37717 21.867 6.43926 21.8049 6.4703C21.7117 6.4703 21.6497 6.40822 21.6497 6.34613Z" fill="white"/>
<path id="XMLID_57_" d="M20.9025 7.27923C20.9025 7.21715 20.9645 7.15507 21.0266 7.12402C21.0887 7.12402 21.1508 7.18611 21.1818 7.24819C21.1818 7.31028 21.1198 7.37236 21.0577 7.4034C20.9645 7.43444 20.9025 7.37236 20.9025 7.27923Z" fill="white"/>
<path id="XMLID_56_" d="M20.4989 7.74506C20.4989 7.68297 20.561 7.62089 20.6231 7.58984C20.6852 7.58984 20.7472 7.65193 20.7783 7.71402C20.7783 7.7761 20.7162 7.83818 20.6541 7.86923C20.561 7.86923 20.4989 7.80714 20.4989 7.74506Z" fill="white"/>
<path id="XMLID_55_" d="M21.9601 5.84711C21.9601 5.78502 22.0222 5.72294 22.0843 5.69189C22.1463 5.69189 22.2084 5.75398 22.2084 5.81606C22.2084 5.87815 22.1463 5.94023 22.0843 5.97128C22.0222 5.97128 21.9601 5.94023 21.9601 5.84711Z" fill="white"/>
<path id="XMLID_54_" d="M22.2107 5.4433C22.2107 5.38121 22.2728 5.31913 22.3349 5.28809C22.3969 5.28809 22.459 5.35017 22.4901 5.41225C22.4901 5.47434 22.428 5.53642 22.3659 5.56746C22.2728 5.56746 22.2107 5.50538 22.2107 5.4433Z" fill="white"/>
<path id="XMLID_53_" d="M6.68961 15.9558C6.68961 15.9558 5.78717 14.3704 6.41023 12.7829C7.09537 11.009 9.11533 11.2285 9.11533 11.2285C8.80491 11.0733 8.43018 11.0112 8.05768 11.0112C6.65856 11.0733 5.60091 12.3172 5.663 13.8405C5.663 14.7119 6.06655 15.4591 6.68961 15.9558Z" fill="white"/>
<path id="XMLID_52_" d="M3.33034 10.9179C2.92679 10.5144 2.70728 9.98442 2.70728 9.39462C2.70728 8.2128 3.6718 7.31036 4.85362 7.24828C6.09752 7.18619 8.33699 7.5587 9.76714 7.37245C10.2638 9.58087 12.4722 11.7583 14.215 12.7228C12.1618 11.8203 10.2017 9.73608 8.46116 8.77378C6.65628 7.77821 4.85362 7.623 3.92014 8.4944C3.11304 9.23719 3.17512 10.2948 3.33034 10.9179Z" fill="white"/>
<path id="XMLID_51_" d="M8.39908 13.1885C8.52325 13.8426 7.34143 14.0288 7.34143 14.0288C8.39908 14.2151 8.77159 13.6563 8.77159 13.6563L8.39908 13.1885Z" fill="white"/>
<path id="XMLID_50_" d="M16.7672 13.5298C16.7672 13.5298 16.082 14.4943 16.5499 16.2659C16.2705 16.5453 15.7406 16.7626 15.337 16.889C15.337 16.889 16.9224 17.1063 17.4213 16.2349C16.4546 15.4899 16.7362 13.654 16.7672 13.5298Z" fill="white"/>
<path id="Vector_2" d="M19.9401 3.39036C19.3171 3.2662 18.7583 3.60766 18.6652 4.10655C18.5721 4.60322 19.0066 5.13316 19.5987 5.22628C20.2217 5.35045 20.7805 5.00899 20.8736 4.51009C20.9645 4.01342 20.561 3.51453 19.9401 3.39036ZM20.7162 4.47905C20.6541 4.85156 20.2505 5.07107 19.8137 5.00677C19.3791 4.91364 19.0665 4.57218 19.1286 4.19746C19.1907 3.82495 19.5942 3.60544 20.031 3.66974C20.4678 3.76509 20.7783 4.13759 20.7162 4.47905Z" fill="white"/>
<path id="XMLID_47_" d="M19.8781 4.32356C19.9091 4.1373 20.1264 3.98209 20.3748 4.04418C20.6231 4.07522 20.7783 4.29251 20.7473 4.47877C20.7162 4.66502 20.4989 4.82023 20.2506 4.75815C20.0022 4.7271 19.8448 4.54085 19.8781 4.32356Z" fill="white"/>
<path id="XMLID_46_" d="M18.5698 12.6276C18.9424 13.3438 17.7295 13.5922 17.7295 13.5922C18.5698 13.7474 19.0665 13.1886 19.0665 12.9691C18.8825 12.2241 18.694 12.7829 18.5698 12.6276Z" fill="white"/>
<path id="XMLID_45_" d="M21.122 3.95114C20.8115 3.42343 20.2506 3.0487 19.5676 3.0487C18.9756 3.0487 18.4479 3.35912 18.1064 3.79593C18.0133 3.9201 17.8271 3.95114 17.7029 3.82697C17.5787 3.73385 17.5787 3.54759 17.6718 3.42342C18.0444 2.98883 18.6053 2.73828 19.2262 2.73828C20.0954 2.73828 20.8093 3.23496 21.122 3.95114Z" fill="white"/>
<path id="XMLID_44_" d="M19.1929 7.6207C18.5698 7.58966 17.7317 7.27924 16.9845 6.71826C16.3304 6.25263 15.8647 5.69166 15.6164 5.16394C15.5543 5.07081 15.5854 4.94664 15.6785 4.9156C15.7716 4.85352 15.8958 4.88456 15.9268 4.97768C16.2062 5.53644 16.612 6.1595 17.2328 6.65618C17.8869 7.18611 18.5698 7.52758 19.1929 7.6207Z" fill="white"/>
<path id="XMLID_43_" d="M18.3525 9.36137C17.2018 9.29929 15.8958 8.67623 14.8692 7.64962C14.4035 7.15295 14.0288 6.62301 13.7805 6.12634C13.7184 6.03321 13.7494 5.90905 13.8426 5.878C13.9357 5.81592 14.0598 5.84696 14.0909 5.94009C14.4013 6.56315 14.776 7.24607 15.3658 7.86913C16.2683 8.74053 17.357 9.2372 18.3525 9.36137Z" fill="white"/>
<path id="XMLID_42_" d="M11.8825 6.74929C11.9757 6.71824 12.0998 6.78033 12.1309 6.87345C12.6275 8.08631 12.8781 8.5852 13.8094 9.57855C15.0843 10.9156 16.9202 11.4145 17.9158 11.4145C17.0444 11.4766 14.9291 11.1041 13.4368 9.54751C12.5965 8.67611 12.0067 7.77368 11.7251 6.96658C11.7273 6.9045 11.7894 6.78033 11.8825 6.74929Z" fill="white"/>
<path id="XMLID_41_" d="M18.632 5.28804C18.8803 5.44325 19.255 5.59846 19.7207 5.6295C20.7473 5.66054 21.1198 4.85123 21.1508 4.50977C21.1508 4.72706 20.8714 5.87784 19.5965 5.87784C19.0998 5.87784 18.7251 5.78471 18.4457 5.59846C18.3526 5.53637 18.3215 5.44325 18.3526 5.35012C18.4147 5.28804 18.5388 5.22595 18.632 5.28804Z" fill="white"/>
</g>
</svg>
