<svg width="23" height="20" viewBox="0 0 23 20" fill="none" xmlns="http://www.w3.org/2000/svg">
<g id="layer1">
<g id="g1413">
<path id="path1353" d="M9.93546 11.0769C10.0277 12.0107 10.0738 12.5065 9.31291 13.3135C8.51745 14.1551 6.52302 15.6999 4.48247 16.8758C3.61783 17.3715 2.45345 17.971 1.57729 18.2938C0.920166 18.5243 0.378321 18.6281 0.101637 18.1554C-0.0712882 17.8442 0.00941222 17.5675 0.101637 17.3254C0.816407 15.4001 2.85695 11.8032 4.19426 9.46294C4.3326 9.23237 4.47095 8.97874 4.60929 8.73664C6.66136 5.19739 9.38209 0.862674 9.92393 0.159439C9.9931 0.0672092 10.143 -0.0480706 10.2698 0.0211005C10.3735 0.0787422 10.3735 0.205555 10.362 0.297785C10.362 0.309304 10.3274 0.436126 10.3159 0.493767C9.42819 4.0676 9.53196 7.57227 9.93546 11.0769Z" fill="#00A3E0"/>
<path id="path1355" d="M12.9328 12.1721C12.0682 11.7801 11.6186 11.5726 11.3073 10.512C10.973 9.40525 10.6387 6.90357 10.6387 4.55176C10.6387 3.56031 10.6963 2.24606 10.8577 1.32378C10.9845 0.643596 11.169 0.113281 11.7223 0.113281C12.0682 0.113281 12.2642 0.33232 12.4371 0.539833C13.7514 2.10771 15.838 5.68155 17.1984 7.99878C17.3367 8.24088 17.4751 8.48297 17.6134 8.7366C19.654 12.2874 22.0519 16.8066 22.3862 17.6136C22.4323 17.7288 22.4669 17.9133 22.3401 17.994C22.2248 18.0516 22.1211 17.9825 22.0519 17.9364C22.0404 17.9248 21.9481 17.8326 21.902 17.798C19.2505 15.2387 16.1608 13.567 12.9328 12.1721Z" fill="#00A3E0"/>
<path id="path1357" d="M10.4773 14.2244C11.2497 13.671 11.6532 13.3828 12.7369 13.6364C13.8552 13.9131 16.1839 14.87 18.236 16.0459C19.0891 16.5416 20.1958 17.2448 20.9106 17.8443C21.4409 18.2939 21.7983 18.7205 21.5331 19.1931C21.3487 19.5044 21.072 19.5621 20.8069 19.6082C18.7894 19.954 14.6506 19.9771 11.9645 20.0001C11.6878 20.0001 11.3996 20.0001 11.1114 20.0001C7.01876 19.9886 1.91163 19.8041 1.03546 19.6889C0.908652 19.6658 0.735723 19.6082 0.747252 19.4583C0.747252 19.3315 0.85101 19.2738 0.931706 19.2393C0.954745 19.2277 1.07005 19.1931 1.1277 19.1816C4.66695 18.1556 7.65283 16.3226 10.4773 14.2244Z" fill="#00A3E0"/>
</g>
</g>
</svg>
